<?xml version="1.0" encoding="UTF-8" standalone="no"?>
<!-- Created with Inkscape (http://www.inkscape.org/) -->

<svg
   xmlns:dc="http://purl.org/dc/elements/1.1/"
   xmlns:cc="http://creativecommons.org/ns#"
   xmlns:rdf="http://www.w3.org/1999/02/22-rdf-syntax-ns#"
   xmlns:svg="http://www.w3.org/2000/svg"
   xmlns="http://www.w3.org/2000/svg"
   xmlns:sodipodi="http://sodipodi.sourceforge.net/DTD/sodipodi-0.dtd"
   xmlns:inkscape="http://www.inkscape.org/namespaces/inkscape"
   width="470.47333"
   height="196.52109"
   id="svg5802"
   version="1.1"
   inkscape:version="0.48.4 r9939"
   sodipodi:docname="bitmsg_server.svg">
  <defs
     id="defs5804" />
  <sodipodi:namedview
     id="base"
     pagecolor="#ffffff"
     bordercolor="#666666"
     borderopacity="1.0"
     inkscape:pageopacity="0.0"
     inkscape:pageshadow="2"
     inkscape:zoom="0.98994949"
     inkscape:cx="233.3978"
     inkscape:cy="47.205169"
     inkscape:document-units="px"
     inkscape:current-layer="layer1"
     showgrid="false"
     inkscape:window-width="1301"
     inkscape:window-height="744"
     inkscape:window-x="65"
     inkscape:window-y="24"
     inkscape:window-maximized="1"
     fit-margin-top="0"
     fit-margin-left="0"
     fit-margin-right="0"
     fit-margin-bottom="0" />
  <metadata
     id="metadata5807">
    <rdf:RDF>
      <cc:Work
         rdf:about="">
        <dc:format>image/svg+xml</dc:format>
        <dc:type
           rdf:resource="http://purl.org/dc/dcmitype/StillImage" />
        <dc:title></dc:title>
      </cc:Work>
    </rdf:RDF>
  </metadata>
  <g
     inkscape:label="Layer 1"
     inkscape:groupmode="layer"
     id="layer1"
     transform="translate(-126.55884,-190.22235)">
    <path
       style="fill:none;stroke:#000000;stroke-width:3;stroke-linecap:round;stroke-linejoin:round;stroke-miterlimit:4;stroke-opacity:1;stroke-dasharray:none"
       d="m 258.4325,247.59117 c 18.31628,3.222 28.38177,13.22481 94.69014,13.2736"
       id="path5322"
       inkscape:connector-curvature="0"
       sodipodi:nodetypes="cc" />
    <path
       style="fill:none;stroke:#000000;stroke-width:2.84640908;stroke-linecap:round;stroke-linejoin:miter;stroke-miterlimit:4;stroke-opacity:1;stroke-dasharray:none"
       d="m 355.3644,261.35244 c -8.91345,8.91345 -8.91345,8.91345 -8.91345,8.91345"
       id="path5326"
       inkscape:connector-curvature="0" />
    <path
       style="fill:none;stroke:#000000;stroke-width:2.84640908;stroke-linecap:round;stroke-linejoin:miter;stroke-miterlimit:4;stroke-opacity:1;stroke-dasharray:none"
       d="m 354.9331,259.77102 c -8.91345,-8.91346 -8.91345,-8.91346 -8.91345,-8.91346"
       id="path5326-1"
       inkscape:connector-curvature="0" />
    <rect
       style="fill:#000000;fill-opacity:0;fill-rule:evenodd;stroke:#000000;stroke-width:2.84640908;stroke-linecap:round;stroke-linejoin:miter;stroke-miterlimit:10;stroke-opacity:1;stroke-dasharray:none"
       id="rect5276-3"
       width="118.81396"
       height="61.111927"
       x="128.21098"
       y="211.48416" />
    <path
       style="fill:none;stroke:#000000;stroke-width:2.84640908;stroke-linecap:butt;stroke-linejoin:miter;stroke-miterlimit:4;stroke-opacity:1;stroke-dasharray:none"
       d="m 127.98204,211.88242 c 0,0 36.73288,36.59004 60.19341,36.47521 22.96463,-0.11238 58.56876,-36.27922 58.56876,-36.27922 l 0.0392,-0.14372"
       id="path5282-9"
       inkscape:connector-curvature="0"
       sodipodi:nodetypes="cacc" />
    <path
       style="fill:none;stroke:#000000;stroke-width:0.58538294px;stroke-linecap:butt;stroke-linejoin:miter;stroke-opacity:1"
       d="m 128.05048,272.60813 c 45.23644,-28.088 45.23644,-28.088 45.23644,-28.088"
       id="path5284-5"
       inkscape:connector-curvature="0" />
    <path
       style="fill:none;stroke:#000000;stroke-width:0.58538294px;stroke-linecap:butt;stroke-linejoin:miter;stroke-opacity:1"
       d="M 247.52371,272.84255 C 202.28727,244.75457 202.28727,244.75457 202.28727,244.75457"
       id="path5284-7-9"
       inkscape:connector-curvature="0" />
    <path
       sodipodi:nodetypes="ccaaac"
       inkscape:connector-curvature="0"
       id="rect5454"
       d="m 179.42707,241.70687 17.77888,0 c 0,0 1.04793,13.25674 -2.90267,17.77888 -1.49765,1.71432 -4.25551,2.05807 -6.53102,1.99559 -1.93156,-0.0531 -4.21167,-0.50605 -5.44252,-1.99559 -3.825,-4.62887 -2.90267,-17.77888 -2.90267,-17.77888 z"
       style="fill:#ffffff;fill-opacity:1;fill-rule:evenodd;stroke:#000000;stroke-width:2.84640908;stroke-linecap:round;stroke-linejoin:round;stroke-miterlimit:10;stroke-opacity:1;stroke-dasharray:none" />
    <path
       sodipodi:nodetypes="cssc"
       inkscape:connector-curvature="0"
       id="rect5459"
       d="m 181.97954,241.35863 c 0,0 -0.74665,-9.41754 2.42329,-12.2793 1.90196,-1.71707 6.16739,-1.71707 8.06935,0 3.16994,2.86176 2.43823,12.52223 2.43823,12.52223"
       style="fill:#ffffff;fill-opacity:0;fill-rule:evenodd;stroke:#000000;stroke-width:2.84640908;stroke-linecap:round;stroke-linejoin:round;stroke-miterlimit:10;stroke-opacity:1;stroke-dasharray:none" />
    <g
       transform="matrix(0.25398399,0,0,0.25398399,97.063678,208.089)"
       style="fill:#ffffff;fill-opacity:1;stroke:#000000;stroke-width:6.72422457;stroke-miterlimit:10;stroke-opacity:1;stroke-dasharray:none"
       id="g5488">
      <path
         inkscape:connector-curvature="0"
         id="path5466"
         d="m 360.84375,151.90625 c -4.45906,0 -8.0625,3.75167 -8.0625,8.375 0,2.56861 1.11859,4.87065 2.875,6.40625 l 0,17.25 10.34375,0 0,-17.21875 c 1.77537,-1.53559 2.90625,-3.85289 2.90625,-6.4375 0,-4.62333 -3.60343,-8.375 -8.0625,-8.375 z"
         style="fill:#ffffff;fill-opacity:1;fill-rule:evenodd;stroke:#000000;stroke-width:6.72422457;stroke-linecap:round;stroke-linejoin:round;stroke-miterlimit:10;stroke-opacity:1;stroke-dasharray:none" />
    </g>
    <path
       transform="translate(2.0203063,-1.0101563)"
       style="fill:#ffffff;fill-opacity:0;fill-rule:evenodd;stroke:#000000;stroke-width:5;stroke-linecap:round;stroke-linejoin:round;stroke-miterlimit:10;stroke-opacity:1"
       d="m 497.86818,368.10803 c -12.79505,6.6956 -27.35253,10.48239 -42.79445,10.48239 -51.0471,0 -92.42895,-41.38185 -92.42895,-92.42895 0,-51.0471 41.38185,-92.42896 92.42895,-92.42896 51.0471,0 92.42896,41.38186 92.42896,92.42896 0,12.62531 -2.53134,24.65938 -7.1142,35.62239"
       id="path5897"
       inkscape:connector-curvature="0"
       sodipodi:nodetypes="cssssc" />
    <g
       id="g6523"
       transform="translate(0.77555826,0.06127246)">
      <text
         xml:space="preserve"
         style="font-size:82.18193817px;font-style:normal;font-weight:normal;line-height:125%;letter-spacing:0px;word-spacing:0px;fill:#000000;fill-opacity:1;stroke:none;font-family:Sans"
         x="424.24399"
         y="312.55835"
         id="text5899"
         sodipodi:linespacing="125%"><tspan
           sodipodi:role="line"
           id="tspan5901"
           x="424.24399"
           y="312.55835"
           style="font-style:normal;font-variant:normal;font-weight:bold;font-stretch:normal;font-family:Serif;-inkscape-font-specification:Serif Bold">B</tspan></text>
      <path
         inkscape:connector-curvature="0"
         id="path5905"
         d="m 448.114,253.49497 0,-11.82861"
         style="fill:none;stroke:#000000;stroke-width:7.37475586;stroke-linecap:butt;stroke-linejoin:miter;stroke-miterlimit:4;stroke-opacity:1;stroke-dasharray:none" />
      <path
         inkscape:connector-curvature="0"
         id="path5905-2"
         d="m 460.58638,253.52509 0,-11.82861"
         style="fill:none;stroke:#000000;stroke-width:7.37475586;stroke-linecap:butt;stroke-linejoin:miter;stroke-miterlimit:4;stroke-opacity:1;stroke-dasharray:none" />
      <path
         inkscape:connector-curvature="0"
         id="path5905-4"
         d="m 447.58285,323.3254 0,-11.82861"
         style="fill:none;stroke:#000000;stroke-width:7.37475586;stroke-linecap:butt;stroke-linejoin:miter;stroke-miterlimit:4;stroke-opacity:1;stroke-dasharray:none" />
      <path
         sodipodi:nodetypes="cc"
         inkscape:connector-curvature="0"
         id="path5905-2-2"
         d="m 460.05524,323.35552 c 0,25.84211 0,2.2607 0,-11.82861"
         style="fill:none;stroke:#000000;stroke-width:7.37475586;stroke-linecap:butt;stroke-linejoin:miter;stroke-miterlimit:4;stroke-opacity:1;stroke-dasharray:none" />
    </g>
    <path
       inkscape:connector-curvature="0"
       id="path6494-1-9-3"
       d="m 458.35673,232.44506 c 0,-12.76797 0,-25.41523 -1e-5,-37.83479"
       style="fill:none;stroke:#000000;stroke-width:5;stroke-linecap:round;stroke-linejoin:miter;stroke-miterlimit:4;stroke-opacity:1;stroke-dasharray:none"
       sodipodi:nodetypes="cc" />
    <path
       inkscape:connector-curvature="0"
       id="path6494-1-9-3-2"
       d="m 457.14287,376.63671 c 0,-12.76797 0,-25.41523 -1e-5,-37.83479"
       style="fill:none;stroke:#000000;stroke-width:5;stroke-linecap:round;stroke-linejoin:miter;stroke-miterlimit:4;stroke-opacity:1;stroke-dasharray:none"
       sodipodi:nodetypes="cc" />
    <g
       id="g3349"
       transform="translate(3.030458,9.0913728)">
      <g
         id="g3493"
         transform="matrix(0.68375732,0,0,0.53122948,74.521456,177.99186)">
        <path
           sodipodi:nodetypes="csssc"
           inkscape:connector-curvature="0"
           id="path3320-6"
           d="m 459.5012,191.95364 c 2.69092,3.12777 4.15882,6.50436 4.15882,10.0261 0,16.17886 -30.97986,29.29442 -69.19545,29.29442 -38.21559,0 -69.19545,-13.11556 -69.19545,-29.29442 0,-3.32726 1.31025,-6.52495 3.72424,-9.50566"
           style="fill:#ffffff;fill-opacity:0;fill-rule:evenodd;stroke:#000000;stroke-width:5;stroke-linecap:round;stroke-linejoin:round;stroke-miterlimit:4;stroke-opacity:1"
           transform="translate(292.72894,141.73504)" />
        <path
           sodipodi:nodetypes="ccssc"
           inkscape:connector-curvature="0"
           id="path3320-6-6"
           d="m 751.73271,313.85004 c 2.70586,2.96248 4.31467,6.3939 4.37873,10.37309 0,16.17886 -30.97986,29.29442 -69.19545,29.29442 -38.21559,0 -69.19545,-13.11556 -69.19545,-29.29442 0,-4.12638 2.01522,-8.0535 5.65172,-11.61457"
           style="fill:#ffffff;fill-opacity:0;fill-rule:evenodd;stroke:#000000;stroke-width:5;stroke-linecap:round;stroke-linejoin:round;stroke-miterlimit:4;stroke-opacity:1" />
        <path
           sodipodi:nodetypes="csscsc"
           inkscape:connector-curvature="0"
           id="path3320-6-6-9"
           d="m 754.34554,293.25607 c 2.0753,2.78472 3.19447,5.74913 3.19447,8.82421 0,16.17886 -30.97986,29.29442 -69.19545,29.29442 -38.21559,0 -69.19545,-13.11556 -69.19545,-29.29442 0.24229,-3.50947 1.39859,-6.34134 3.21142,-8.82248 0.47463,-0.64961 0.11039,-0.0125 0.67041,-0.61988"
           style="fill:#ffffff;fill-opacity:0;fill-rule:evenodd;stroke:#000000;stroke-width:5;stroke-linecap:round;stroke-linejoin:round;stroke-miterlimit:4;stroke-opacity:1" />
        <path
           sodipodi:nodetypes="sssss"
           inkscape:connector-curvature="0"
           id="path3320-6-6-9-5"
           d="m 757.54001,282.08028 c 0,16.17886 -30.97986,29.29442 -69.19545,29.29442 -38.21559,0 -69.19545,-13.11556 -69.19545,-29.29442 0,-16.17887 30.97986,-29.29443 69.19545,-29.29443 38.21559,0 69.19545,13.11556 69.19545,29.29443 z"
           style="fill:#ffffff;fill-opacity:0;fill-rule:evenodd;stroke:#000000;stroke-width:5;stroke-linecap:round;stroke-linejoin:round;stroke-miterlimit:4;stroke-opacity:1" />
      </g>
    </g>
  </g>
</svg>
